ffmpeg started on 2025-05-29 at 16:35:10
Report written to "D:\Convert\FFMetrics\reports\ssim_report-6.txt"
Log level: 32
Command line:
ffmpeg -hide_banner -nostdin -i "G:\\\xc0\xed\xe8\xec\xe5\\\xce\xed\xe3\xee\xe8\xed\xe3\xe8\\!_36_\xce\xf1\xe5\xed\xfc_2024\\JamClub\\\xd2\xfb - \xe3\xee\xf0\xed\xe8\xf7\xed\xe0\xff\\JamClub_Kimi_wa_Meido_sama_09_1080p_HEVC.mkv" -i "G:\\\xc0\xed\xe8\xec\xe5\\\xce\xed\xe3\xee\xe8\xed\xe3\xe8\\!_36_\xce\xf1\xe5\xed\xfc_2024\\JamClub\\\xd2\xfb - \xe3\xee\xf0\xed\xe8\xf7\xed\xe0\xff\\JamClub_Kimi_wa_Meido_sama_09_1080p.mp4" -lavfi "[0:v]settb=AVTB,setpts=PTS-STARTPTS,format=pix_fmts=yuv420p10,fps=24000/1001,scale=1920:1080:flags=bicubic[main];[1:v]settb=AVTB,setpts=PTS-STARTPTS,format=pix_fmts=yuv420p,fps=24000/1001,scale=1920:1080:flags=bicubic[ref];[main][ref]ssim=eof_action=endall:stats_file='D\\:/Convert/FFMetrics/logs/ssim_logfile-6.txt'" -f null -
Input #0, matroska,webm, from 'G:\Аниме\Онгоинги\!_36_Осень_2024\JamClub\Ты - горничная\JamClub_Kimi_wa_Meido_sama_09_1080p_HEVC.mkv':
  Metadata:
    COMPATIBLE_BRANDS: isomiso2avc1mp41
    MAJOR_BRAND     : isom
    MINOR_VERSION   : 512
    ENCODER         : Lavf61.7.100
  Duration: 00:23:22.18, start: -0.001000, bitrate: 1251 kb/s
  Stream #0:0: Video: hevc (Main 10), yuv420p10le(tv, bt709, progressive), 1920x1080 [SAR 1:1 DAR 16:9], 23.98 fps, 23.98 tbr, 1k tbn (default)
      Metadata:
        HANDLER_NAME    : VideoHandler
        VENDOR_ID       : [0][0][0][0]
        ENCODER         : Lavc61.19.100 libx265
        BPS             : 1053298
        DURATION        : 00:23:22.108708333
        NUMBER_OF_FRAMES: 33617
        NUMBER_OF_BYTES : 184604838
        _STATISTICS_WRITING_APP: mkvpropedit v66.0.0 ('Josie') 64-bit
        _STATISTICS_WRITING_DATE_UTC: 2025-05-29 11:02:44
        _STATISTICS_TAGS: BPS DURATION NUMBER_OF_FRAMES NUMBER_OF_BYTES
  Stream #0:1(eng): Audio: aac (LC), 48000 Hz, stereo, fltp (default)
      Metadata:
        HANDLER_NAME    : SoundHandler
        VENDOR_ID       : [0][0][0][0]
        ENCODER         : Lavc61.19.100 aac
        BPS             : 193783
        DURATION        : 00:23:22.136000000
        NUMBER_OF_FRAMES: 65726
        NUMBER_OF_BYTES : 33963771
        _STATISTICS_WRITING_APP: mkvpropedit v66.0.0 ('Josie') 64-bit
        _STATISTICS_WRITING_DATE_UTC: 2025-05-29 11:02:44
        _STATISTICS_TAGS: BPS DURATION NUMBER_OF_FRAMES NUMBER_OF_BYTES
Input #1, mov,mp4,m4a,3gp,3g2,mj2, from 'G:\Аниме\Онгоинги\!_36_Осень_2024\JamClub\Ты - горничная\JamClub_Kimi_wa_Meido_sama_09_1080p.mp4':
  Metadata:
    major_brand     : isom
    minor_version   : 512
    compatible_brands: isomiso2avc1mp41
    encoder         : Lavf60.16.100
  Duration: 00:23:22.16, start: 0.000000, bitrate: 3613 kb/s
  Stream #1:0[0x1](und): Video: h264 (High) (avc1 / 0x31637661), yuv420p(progressive), 1920x1080 [SAR 1:1 DAR 16:9], 3415 kb/s, 23.98 fps, 23.98 tbr, 90k tbn (default)
      Metadata:
        handler_name    : VideoHandler
        vendor_id       : [0][0][0][0]
  Stream #1:1[0x2](eng): Audio: aac (LC) (mp4a / 0x6134706D), 48000 Hz, stereo, fltp, 191 kb/s (default)
      Metadata:
        handler_name    : SoundHandler
        vendor_id       : [0][0][0][0]
Stream mapping:
  Stream #0:0 (hevc) -> settb:default
  Stream #1:0 (h264) -> settb:default
  ssim:default -> Stream #0:0 (wrapped_avframe)
  Stream #0:1 -> #0:1 (aac (native) -> pcm_s16le (native))
Output #0, null, to 'pipe:':
  Metadata:
    COMPATIBLE_BRANDS: isomiso2avc1mp41
    MAJOR_BRAND     : isom
    MINOR_VERSION   : 512
    encoder         : Lavf61.7.100
  Stream #0:0: Video: wrapped_avframe, yuv420p10le(tv, bt709, progressive), 1920x1080 [SAR 1:1 DAR 16:9], q=2-31, 200 kb/s, 23.98 fps, 23.98 tbn
      Metadata:
        encoder         : Lavc61.19.100 wrapped_avframe
  Stream #0:1(eng): Audio: pcm_s16le, 48000 Hz, stereo, s16, 1536 kb/s (default)
      Metadata:
        HANDLER_NAME    : SoundHandler
        VENDOR_ID       : [0][0][0][0]
        _STATISTICS_TAGS: BPS DURATION NUMBER_OF_FRAMES NUMBER_OF_BYTES
        BPS             : 193783
        DURATION        : 00:23:22.136000000
        NUMBER_OF_FRAMES: 65726
        NUMBER_OF_BYTES : 33963771
        _STATISTICS_WRITING_APP: mkvpropedit v66.0.0 ('Josie') 64-bit
        _STATISTICS_WRITING_DATE_UTC: 2025-05-29 11:02:44
        encoder         : Lavc61.19.100 pcm_s16le
frame=  107 fps=0.0 q=-0.0 size=N/A time=00:00:04.46 bitrate=N/A speed= 8.6x    frame=  269 fps=261 q=-0.0 size=N/A time=00:00:11.21 bitrate=N/A speed=10.9x    frame=  464 fps=299 q=-0.0 size=N/A time=00:00:19.35 bitrate=N/A speed=12.5x    frame=  719 fps=349 q=-0.0 size=N/A time=00:00:29.98 bitrate=N/A speed=14.5x    frame=  941 fps=364 q=-0.0 size=N/A time=00:00:39.24 bitrate=N/A speed=15.2x    frame= 1119 fps=362 q=-0.0 size=N/A time=00:00:46.67 bitrate=N/A speed=15.1x    frame= 1348 fps=373 q=-0.0 size=N/A time=00:00:56.22 bitrate=N/A speed=15.5x    frame= 1606 fps=389 q=-0.0 size=N/A time=00:01:06.98 bitrate=N/A speed=16.2x    frame= 1883 fps=405 q=-0.0 size=N/A time=00:01:18.53 bitrate=N/A speed=16.9x    frame= 2145 fps=416 q=-0.0 size=N/A time=00:01:29.46 bitrate=N/A speed=17.4x    frame= 2408 fps=424 q=-0.0 size=N/A time=00:01:40.43 bitrate=N/A speed=17.7x    frame= 2597 fps=419 q=-0.0 size=N/A time=00:01:48.31 bitrate=N/A speed=17.5x    frame= 2826 fps=421 q=-0.0 size=N/A time=00:01:57.86 bitrate=N/A speed=17.6x    frame= 3104 fps=429 q=-0.0 size=N/A time=00:02:09.46 bitrate=N/A speed=17.9x    frame= 3385 fps=438 q=-0.0 size=N/A time=00:02:21.18 bitrate=N/A speed=18.2x    frame= 3680 fps=446 q=-0.0 size=N/A time=00:02:33.48 bitrate=N/A speed=18.6x    frame= 3949 fps=450 q=-0.0 size=N/A time=00:02:44.70 bitrate=N/A speed=18.8x    frame= 4213 fps=453 q=-0.0 size=N/A time=00:02:55.71 bitrate=N/A speed=18.9x    frame= 4465 fps=455 q=-0.0 size=N/A time=00:03:06.22 bitrate=N/A speed=  19x    frame= 4723 fps=458 q=-0.0 size=N/A time=00:03:16.98 bitrate=N/A speed=19.1x    frame= 5003 fps=462 q=-0.0 size=N/A time=00:03:28.66 bitrate=N/A speed=19.3x    frame= 5273 fps=464 q=-0.0 size=N/A time=00:03:39.92 bitrate=N/A speed=19.4x    frame= 5541 fps=467 q=-0.0 size=N/A time=00:03:51.10 bitrate=N/A speed=19.5x    frame= 5763 fps=465 q=-0.0 size=N/A time=00:04:00.36 bitrate=N/A speed=19.4x    frame= 6026 fps=467 q=-0.0 size=N/A time=00:04:11.33 bitrate=N/A speed=19.5x    frame= 6310 fps=470 q=-0.0 size=N/A time=00:04:23.17 bitrate=N/A speed=19.6x    frame= 6583 fps=472 q=-0.0 size=N/A time=00:04:34.56 bitrate=N/A speed=19.7x    frame= 6846 fps=474 q=-0.0 size=N/A time=00:04:45.53 bitrate=N/A speed=19.7x    frame= 7117 fps=475 q=-0.0 size=N/A time=00:04:56.83 bitrate=N/A speed=19.8x    frame= 7372 fps=476 q=-0.0 size=N/A time=00:05:07.47 bitrate=N/A speed=19.8x    frame= 7629 fps=477 q=-0.0 size=N/A time=00:05:18.19 bitrate=N/A speed=19.9x    frame= 7865 fps=476 q=-0.0 size=N/A time=00:05:28.03 bitrate=N/A speed=19.8x    frame= 8105 fps=476 q=-0.0 size=N/A time=00:05:38.04 bitrate=N/A speed=19.8x    frame= 8357 fps=476 q=-0.0 size=N/A time=00:05:48.55 bitrate=N/A speed=19.9x    frame= 8612 fps=477 q=-0.0 size=N/A time=00:05:59.19 bitrate=N/A speed=19.9x    frame= 8868 fps=477 q=-0.0 size=N/A time=00:06:09.86 bitrate=N/A speed=19.9x    frame= 9135 fps=478 q=-0.0 size=N/A time=00:06:21.00 bitrate=N/A speed=  20x    frame= 9423 fps=480 q=-0.0 size=N/A time=00:06:33.01 bitrate=N/A speed=  20x    frame= 9664 fps=480 q=-0.0 size=N/A time=00:06:43.06 bitrate=N/A speed=  20x    frame= 9905 fps=480 q=-0.0 size=N/A time=00:06:53.12 bitrate=N/A speed=  20x    frame=10178 fps=481 q=-0.0 size=N/A time=00:07:04.50 bitrate=N/A speed=20.1x    frame=10445 fps=482 q=-0.0 size=N/A time=00:07:15.64 bitrate=N/A speed=20.1x    frame=10694 fps=482 q=-0.0 size=N/A time=00:07:26.02 bitrate=N/A speed=20.1x    frame=10888 fps=480 q=-0.0 size=N/A time=00:07:34.12 bitrate=N/A speed=  20x    frame=11095 fps=478 q=-0.0 size=N/A time=00:07:42.75 bitrate=N/A speed=19.9x    frame=11345 fps=478 q=-0.0 size=N/A time=00:07:53.18 bitrate=N/A speed=19.9x    frame=11605 fps=478 q=-0.0 size=N/A time=00:08:04.02 bitrate=N/A speed=  20x    frame=11847 fps=478 q=-0.0 size=N/A time=00:08:14.11 bitrate=N/A speed=19.9x    frame=12058 fps=477 q=-0.0 size=N/A time=00:08:22.91 bitrate=N/A speed=19.9x    frame=12323 fps=477 q=-0.0 size=N/A time=00:08:33.97 bitrate=N/A speed=19.9x    frame=12607 fps=479 q=-0.0 size=N/A time=00:08:45.81 bitrate=N/A speed=  20x    frame=12860 fps=479 q=-0.0 size=N/A time=00:08:56.36 bitrate=N/A speed=  20x    frame=13115 fps=479 q=-0.0 size=N/A time=00:09:07.04 bitrate=N/A speed=  20x    frame=13378 fps=480 q=-0.0 size=N/A time=00:09:17.97 bitrate=N/A speed=  20x    frame=13664 fps=481 q=-0.0 size=N/A time=00:09:29.90 bitrate=N/A speed=20.1x    frame=13919 fps=481 q=-0.0 size=N/A time=00:09:40.53 bitrate=N/A speed=20.1x    frame=14193 fps=482 q=-0.0 size=N/A time=00:09:51.96 bitrate=N/A speed=20.1x    frame=14442 fps=482 q=-0.0 size=N/A time=00:10:02.35 bitrate=N/A speed=20.1x    frame=14655 fps=481 q=-0.0 size=N/A time=00:10:11.23 bitrate=N/A speed=20.1x    frame=14895 fps=481 q=-0.0 size=N/A time=00:10:21.24 bitrate=N/A speed=20.1x    frame=15138 fps=481 q=-0.0 size=N/A time=00:10:31.38 bitrate=N/A speed=  20x    frame=15402 fps=481 q=-0.0 size=N/A time=00:10:42.39 bitrate=N/A speed=20.1x    frame=15662 fps=482 q=-0.0 size=N/A time=00:10:53.23 bitrate=N/A speed=20.1x    frame=15913 fps=482 q=-0.0 size=N/A time=00:11:03.70 bitrate=N/A speed=20.1x    frame=16106 fps=480 q=-0.0 size=N/A time=00:11:11.75 bitrate=N/A speed=  20x    frame=16295 fps=478 q=-0.0 size=N/A time=00:11:19.63 bitrate=N/A speed=19.9x    frame=16488 fps=477 q=-0.0 size=N/A time=00:11:27.68 bitrate=N/A speed=19.9x    frame=16649 fps=474 q=-0.0 size=N/A time=00:11:34.40 bitrate=N/A speed=19.8x    frame=16805 fps=472 q=-0.0 size=N/A time=00:11:40.90 bitrate=N/A speed=19.7x    frame=17039 fps=472 q=-0.0 size=N/A time=00:11:50.66 bitrate=N/A speed=19.7x    frame=17282 fps=472 q=-0.0 size=N/A time=00:12:00.80 bitrate=N/A speed=19.7x    frame=17507 fps=471 q=-0.0 size=N/A time=00:12:10.18 bitrate=N/A speed=19.6x    frame=17718 fps=470 q=-0.0 size=N/A time=00:12:18.98 bitrate=N/A speed=19.6x    frame=17954 fps=470 q=-0.0 size=N/A time=00:12:28.83 bitrate=N/A speed=19.6x    frame=18170 fps=469 q=-0.0 size=N/A time=00:12:37.84 bitrate=N/A speed=19.6x    frame=18383 fps=469 q=-0.0 size=N/A time=00:12:46.72 bitrate=N/A speed=19.5x    frame=18573 fps=467 q=-0.0 size=N/A time=00:12:54.64 bitrate=N/A speed=19.5x    frame=18814 fps=467 q=-0.0 size=N/A time=00:13:04.70 bitrate=N/A speed=19.5x    frame=19022 fps=467 q=-0.0 size=N/A time=00:13:13.37 bitrate=N/A speed=19.5x    frame=19245 fps=466 q=-0.0 size=N/A time=00:13:22.67 bitrate=N/A speed=19.4x    frame=19413 fps=464 q=-0.0 size=N/A time=00:13:29.68 bitrate=N/A speed=19.4x    frame=19654 fps=465 q=-0.0 size=N/A time=00:13:39.73 bitrate=N/A speed=19.4x    frame=19930 fps=465 q=-0.0 size=N/A time=00:13:51.24 bitrate=N/A speed=19.4x    frame=20218 fps=466 q=-0.0 size=N/A time=00:14:03.25 bitrate=N/A speed=19.5x    frame=20481 fps=467 q=-0.0 size=N/A time=00:14:14.22 bitrate=N/A speed=19.5x    frame=20739 fps=467 q=-0.0 size=N/A time=00:14:24.98 bitrate=N/A speed=19.5x    frame=20929 fps=466 q=-0.0 size=N/A time=00:14:32.91 bitrate=N/A speed=19.4x    frame=21196 fps=467 q=-0.0 size=N/A time=00:14:44.04 bitrate=N/A speed=19.5x    frame=21436 fps=467 q=-0.0 size=N/A time=00:14:54.05 bitrate=N/A speed=19.5x    frame=21702 fps=467 q=-0.0 size=N/A time=00:15:05.15 bitrate=N/A speed=19.5x    frame=21992 fps=468 q=-0.0 size=N/A time=00:15:17.24 bitrate=N/A speed=19.5x    frame=22249 fps=468 q=-0.0 size=N/A time=00:15:27.96 bitrate=N/A speed=19.5x    frame=22517 fps=469 q=-0.0 size=N/A time=00:15:39.14 bitrate=N/A speed=19.6x    frame=22717 fps=468 q=-0.0 size=N/A time=00:15:47.48 bitrate=N/A speed=19.5x    frame=22928 fps=467 q=-0.0 size=N/A time=00:15:56.28 bitrate=N/A speed=19.5x    frame=23117 fps=466 q=-0.0 size=N/A time=00:16:04.17 bitrate=N/A speed=19.4x    frame=23261 fps=464 q=-0.0 size=N/A time=00:16:10.17 bitrate=N/A speed=19.4x    frame=23440 fps=463 q=-0.0 size=N/A time=00:16:17.64 bitrate=N/A speed=19.3x    frame=23664 fps=463 q=-0.0 size=N/A time=00:16:26.98 bitrate=N/A speed=19.3x    frame=23899 fps=463 q=-0.0 size=N/A time=00:16:36.78 bitrate=N/A speed=19.3x    frame=24076 fps=462 q=-0.0 size=N/A time=00:16:44.16 bitrate=N/A speed=19.2x    frame=24287 fps=461 q=-0.0 size=N/A time=00:16:52.97 bitrate=N/A speed=19.2x    frame=24460 fps=460 q=-0.0 size=N/A time=00:17:00.18 bitrate=N/A speed=19.2x    frame=24690 fps=460 q=-0.0 size=N/A time=00:17:09.77 bitrate=N/A speed=19.2x    frame=24926 fps=460 q=-0.0 size=N/A time=00:17:19.62 bitrate=N/A speed=19.2x    frame=25107 fps=459 q=-0.0 size=N/A time=00:17:27.17 bitrate=N/A speed=19.1x    frame=25386 fps=459 q=-0.0 size=N/A time=00:17:38.80 bitrate=N/A speed=19.2x    frame=25660 fps=460 q=-0.0 size=N/A time=00:17:50.23 bitrate=N/A speed=19.2x    frame=25884 fps=460 q=-0.0 size=N/A time=00:17:59.57 bitrate=N/A speed=19.2x    frame=26114 fps=460 q=-0.0 size=N/A time=00:18:09.17 bitrate=N/A speed=19.2x    frame=26378 fps=460 q=-0.0 size=N/A time=00:18:20.18 bitrate=N/A speed=19.2x    frame=26639 fps=461 q=-0.0 size=N/A time=00:18:31.06 bitrate=N/A speed=19.2x    frame=26874 fps=461 q=-0.0 size=N/A time=00:18:40.86 bitrate=N/A speed=19.2x    frame=27132 fps=461 q=-0.0 size=N/A time=00:18:51.63 bitrate=N/A speed=19.2x    frame=27372 fps=461 q=-0.0 size=N/A time=00:19:01.64 bitrate=N/A speed=19.2x    frame=27599 fps=461 q=-0.0 size=N/A time=00:19:11.10 bitrate=N/A speed=19.2x    frame=27825 fps=461 q=-0.0 size=N/A time=00:19:20.53 bitrate=N/A speed=19.2x    frame=28037 fps=460 q=-0.0 size=N/A time=00:19:29.37 bitrate=N/A speed=19.2x    frame=28256 fps=460 q=-0.0 size=N/A time=00:19:38.51 bitrate=N/A speed=19.2x    frame=28474 fps=460 q=-0.0 size=N/A time=00:19:47.60 bitrate=N/A speed=19.2x    frame=28711 fps=460 q=-0.0 size=N/A time=00:19:57.48 bitrate=N/A speed=19.2x    frame=28965 fps=460 q=-0.0 size=N/A time=00:20:08.08 bitrate=N/A speed=19.2x    frame=29199 fps=460 q=-0.0 size=N/A time=00:20:17.84 bitrate=N/A speed=19.2x    frame=29443 fps=460 q=-0.0 size=N/A time=00:20:28.01 bitrate=N/A speed=19.2x    frame=29710 fps=460 q=-0.0 size=N/A time=00:20:39.15 bitrate=N/A speed=19.2x    frame=29950 fps=460 q=-0.0 size=N/A time=00:20:49.16 bitrate=N/A speed=19.2x    frame=30189 fps=460 q=-0.0 size=N/A time=00:20:59.13 bitrate=N/A speed=19.2x    frame=30397 fps=460 q=-0.0 size=N/A time=00:21:07.80 bitrate=N/A speed=19.2x    frame=30649 fps=460 q=-0.0 size=N/A time=00:21:18.31 bitrate=N/A speed=19.2x    frame=30894 fps=460 q=-0.0 size=N/A time=00:21:28.53 bitrate=N/A speed=19.2x    frame=31156 fps=461 q=-0.0 size=N/A time=00:21:39.46 bitrate=N/A speed=19.2x    frame=31392 fps=461 q=-0.0 size=N/A time=00:21:49.30 bitrate=N/A speed=19.2x    frame=31626 fps=461 q=-0.0 size=N/A time=00:21:59.06 bitrate=N/A speed=19.2x    frame=31867 fps=461 q=-0.0 size=N/A time=00:22:09.11 bitrate=N/A speed=19.2x    frame=32115 fps=461 q=-0.0 size=N/A time=00:22:19.46 bitrate=N/A speed=19.2x    frame=32370 fps=461 q=-0.0 size=N/A time=00:22:30.09 bitrate=N/A speed=19.2x    frame=32614 fps=461 q=-0.0 size=N/A time=00:22:40.27 bitrate=N/A speed=19.2x    frame=32890 fps=462 q=-0.0 size=N/A time=00:22:51.78 bitrate=N/A speed=19.3x    frame=33127 fps=462 q=-0.0 size=N/A time=00:23:01.67 bitrate=N/A speed=19.3x    frame=33377 fps=462 q=-0.0 size=N/A time=00:23:12.09 bitrate=N/A speed=19.3x    frame=33581 fps=461 q=-0.0 size=N/A time=00:23:20.60 bitrate=N/A speed=19.2x    [Parsed_ssim_10 @ 000001c3f535b880] SSIM Y:0.995838 (23.807221) U:0.995015 (23.023019) V:0.995053 (23.056983) All:0.995570 (23.536128)
[out#0/null @ 000001c3ee902f40] video:14445KiB audio:262904KiB subtitle:0KiB other streams:0KiB global headers:0KiB muxing overhead: unknown
frame=33617 fps=461 q=-0.0 Lsize=N/A time=00:23:22.10 bitrate=N/A speed=19.2x    
